<?xml version="1.0" encoding="UTF-8"?>
<!DOCTYPE svg PUBLIC "-//W3C//DTD SVG 1.1//EN" "http://www.w3.org/Graphics/SVG/1.1/DTD/svg11.dtd">
<!-- Creator: CorelDRAW -->
<svg xmlns="http://www.w3.org/2000/svg" xml:space="preserve" width="100mm" height="21.092mm" version="1.1" style="shape-rendering:geometricPrecision; text-rendering:geometricPrecision; image-rendering:optimizeQuality; fill-rule:evenodd; clip-rule:evenodd"
viewBox="0 0 9275.59 1956.41"
 xmlns:xlink="http://www.w3.org/1999/xlink"
 xmlns:xodm="http://www.corel.com/coreldraw/odm/2003">
 <defs>
  <style type="text/css">
   <![CDATA[
    .fil1 {fill:#087AF5}
    .fil0 {fill:#26CC9E}
    .fil2 {fill:#4B4B4B;fill-rule:nonzero}
   ]]>
  </style>
 </defs>
 <g id="圖層_x0020_1">
  <metadata id="CorelCorpID_0Corel-Layer"/>
  <g id="_2076303166192">
   <g>
    <path class="fil0" d="M486.6 0l639.91 0c153.62,0 300.46,54.57 416.44,153.14 -84.17,86 -144.54,192.44 -176.06,310.09l-24.32 90.74c-11.71,-27.8 -28.88,-53.38 -50.63,-75.12 -43.92,-43.93 -103.32,-68.86 -165.43,-68.86l-726.23 0c-13.98,0 -26.25,-5.98 -34.85,-17.2 -8.6,-11.2 -11.22,-24.47 -7.56,-38.11l86.31 -322.12c5.2,-19.47 22.25,-32.56 42.42,-32.56z"/>
    <path class="fil1" d="M2766.55 1546.44l171.85 0c24.23,0 43.94,19.73 43.94,43.91l0 322.15c0,24.18 -19.71,43.91 -43.94,43.91l-537.91 0c-24.17,0 -43.92,-19.73 -43.92,-43.91l0 -376.09c0,-106.68 -85.48,-186.34 -161.48,-252.15 145.68,-10.36 322.91,-51.75 435.16,-144.68 83.95,138.06 136.3,222.84 136.3,396.83l0 10.03z"/>
    <path class="fil1" d="M1973.54 904.4l256.09 0c62.3,0 121.4,-24.83 165.43,-68.86 43.99,-43.99 68.84,-103.11 68.84,-165.42l0 -25.85c0,-62.31 -24.85,-121.41 -68.84,-165.43 -44.03,-44.02 -103.13,-68.85 -165.43,-68.85l-186.65 0c-51.95,0 -102.6,15.57 -144,47.33 -41.14,31.58 -69.12,76.23 -82.47,126.11l-239.23 892.63c-36.87,137.71 -116.6,258.71 -229.71,345.51 -112.89,86.6 -250.2,132.18 -392.38,132.18l-601.94 0 -117.81 0c-75.47,0 -140.41,-32.02 -186.36,-91.88 -45.94,-59.88 -60.07,-130.9 -40.53,-203.8l195.08 -727.86c4.13,-15.43 17.64,-25.8 33.61,-25.8l351.9 0c11.19,0 20.81,4.76 27.6,13.64 6.83,8.86 8.91,19.39 6.02,30.18l-159.61 595.55 492.05 0c51.95,0 102.63,-15.63 143.99,-47.32 41.1,-31.54 69.14,-76.25 82.51,-126.13l239.19 -892.61c36.91,-137.71 116.58,-258.67 229.75,-345.5 112.91,-86.65 250.1,-132.21 392.36,-132.21l186.65 0c171.35,0 334.21,67.88 455.29,188.96 121.07,121.08 188.95,283.97 188.95,455.3l0 25.85c0,171.35 -67.86,334.22 -188.95,455.3 -121.1,121.1 -283.97,188.97 -455.29,188.97l-342.41 0c-14.12,0 -26.26,-6 -34.84,-17.2 -8.6,-11.2 -11.25,-24.49 -7.59,-38.09l86.31 -322.12c5.23,-19.5 22.26,-32.58 42.44,-32.58z"/>
   </g>
   <path class="fil2" d="M3571.2 963.49l1190.76 0 0 123.31c0,28.71 -14.38,43.11 -43.11,43.11l-1104.57 0c-28.74,0 -43.09,-14.4 -43.09,-43.11l0 -123.31zm1147.65 -332.45c28.74,0 43.11,13.64 43.11,40.98l0 125.42 -1190.76 0 0 -125.42c0,-27.34 14.35,-40.98 43.09,-40.98l1104.57 0zm-427.02 665.29l615.87 0c28.71,0 53.25,-10.55 73.92,-30.84 21.71,-20.68 32.59,-45.91 32.59,-76.03l0 -621.85c0,-28.74 -10.87,-53.61 -32.59,-73.91 -20.67,-20.71 -45.21,-30.85 -73.92,-30.85l-615.87 0 0 -112.8 731.41 0c14.31,0 25.98,-11.68 25.98,-25.98l0 -116.55c0,-14.31 -11.67,-25.98 -25.98,-25.98l-731.41 0 0 -96.98c0,-14.32 -11.68,-25.99 -25.98,-25.99l-198.51 0c-14.34,0 -26.01,11.67 -26.01,25.99l0 378.29 -615.87 0c-28.74,0 -53.25,10.14 -73.91,30.85 -21.75,20.3 -32.59,45.17 -32.59,73.91l0 621.85c0,30.12 10.84,55.35 32.59,76.03 20.66,20.3 45.17,30.84 73.91,30.84l615.87 0 0 114.87 -768.56 0c-14.31,0 -26.01,11.67 -26.01,25.99l0 112.36c0,14.3 11.7,25.95 26.01,25.95l768.56 0 0 296.34c0,14.31 11.67,25.98 26.01,25.98l198.51 0c14.3,0 25.98,-11.67 25.98,-25.98l0 -296.34 768.21 0c14.31,0 25.96,-11.65 25.96,-25.95l0 -112.36c0,-14.32 -11.65,-25.99 -25.96,-25.99l-768.21 0 0 -114.87zm2328.47 -659.24l269.44 391.44c15,21.81 37.77,33.75 64.21,33.75l217.87 0c4.93,0 9.2,-2.52 11.49,-6.9 2.32,-4.36 2.04,-9.28 -0.73,-13.37l-252.12 -370.8c-14.97,-22.01 -37.86,-34.12 -64.48,-34.12l-245.68 0zm-1003.68 33.91l-253.96 370.97c-2.77,4.08 -3.07,9.03 -0.75,13.38 2.31,4.39 6.53,6.93 11.48,6.93l217.95 0c26.4,0 49.09,-11.85 64.08,-33.55l271.41 -391.64 -245.86 0c-26.57,0 -49.36,12.04 -64.35,33.91zm-205.3 -111.81l1724.6 0c10.73,0 19.49,-8.77 19.49,-19.5l0 -127.04c0,-10.76 -8.76,-19.5 -19.49,-19.5l-253.75 0 157.06 -315.81c2.04,-4.16 1.84,-8.69 -0.59,-12.63 -2.46,-3.95 -6.42,-6.15 -11.06,-6.15l-201.8 0c-30.18,0 -56.05,15.92 -69.62,42.89l-146.91 291.7 -673.32 0 -144.59 -291.29c-13.49,-27.18 -39.5,-43.3 -69.83,-43.3l-203.94 0c-4.61,0 -8.6,2.2 -11.04,6.15 -2.43,3.94 -2.65,8.48 -0.58,12.63l157.08 315.81 -251.71 0c-10.73,0 -19.47,8.74 -19.47,19.5l0 127.04c0,10.73 8.74,19.5 19.47,19.5zm1659.67 648.83c0,-28.74 -10.19,-53.61 -30.5,-73.94 -20.64,-20.67 -45.89,-30.81 -75.99,-30.81l-1383.45 0c-28.77,0 -53.61,10.15 -73.93,30.81 -20.67,20.32 -30.85,45.2 -30.85,73.94l0 521.33 -108.03 0c-10.73,0 -19.49,8.74 -19.49,19.47l0 129.54c0,10.71 8.76,19.47 19.49,19.47l1808.67 0c10.73,0 19.49,-8.76 19.49,-19.47l0 -129.54c0,-10.73 -8.76,-19.47 -19.49,-19.47l-105.91 0 0 -521.33zm-1147.34 521.33l-196.89 0 0 -416.58c0,-28.73 14.35,-43.09 43.09,-43.09l153.81 0 0 459.66zm447.37 0l-196.89 0 0 -459.66 196.89 0 0 459.66zm447.73 0l-197.24 0 0 -459.66 154.15 0c28.71,0 43.09,14.36 43.09,43.09l0 416.58zm982.73 -1127.07l203.55 0c4.77,0 8.87,2.39 11.25,6.56 2.39,4.16 2.37,8.9 -0.06,13.02l-190.91 324.89c-3.63,6.2 -3.67,13.31 -0.1,19.57 3.56,6.21 9.73,9.79 16.91,9.79l20.39 0c10.73,0 19.49,8.77 19.49,19.5l0 876.43c0,10.73 -8.76,19.5 -19.49,19.5l-209.41 0c-10.73,0 -19.49,-8.77 -19.49,-19.5l0 -770.85 -143.86 0c-4.77,0 -8.88,-2.39 -11.26,-6.52 -2.38,-4.15 -2.38,-8.88 0.03,-13l255.51 -440.54c14.33,-24.72 38.85,-38.85 67.44,-38.85zm-0.09 -539.86l203.71 0c4.8,0 8.88,2.37 11.28,6.51 2.38,4.16 2.35,8.88 -0.05,13.03l-255.41 438.51c-14.37,24.65 -38.86,38.72 -67.38,38.72l-203.74 0c-4.77,0 -8.86,-2.37 -11.26,-6.52 -2.38,-4.13 -2.36,-8.87 0.05,-13l255.42 -438.52c14.36,-24.65 38.86,-38.73 67.38,-38.73zm315.55 786.15l1094.34 0c10.73,0 19.49,8.74 19.49,19.47l0 127.47c0,10.73 -8.76,19.49 -19.49,19.49l-184.06 0 0 135.6 228.87 0c10.73,0 19.5,8.77 19.5,19.47l0 127.09c0,10.7 -8.77,19.47 -19.5,19.47l-228.87 0 0 478.54c0,27.34 -10.16,51.18 -30.47,71.82 -20.69,20.37 -45.9,30.84 -76.02,30.84l-374.98 0c-35.93,0 -66.3,-23.43 -75.43,-58.2l-23.52 -89.81c-1.06,-4.06 -0.27,-7.96 2.27,-11.24 2.54,-3.3 6.12,-5.06 10.28,-5.06l276.38 0c9.81,0 19.28,-4.91 28.74,-14.38 7.01,-8.38 10.5,-18.53 10.5,-30.79l0 -371.72 -727.76 0c-10.73,0 -19.47,-8.77 -19.47,-19.47l0 -127.09c0,-10.7 8.74,-19.47 19.47,-19.47l727.76 0 0 -135.6 -658.03 0c-10.73,0 -19.49,-8.76 -19.49,-19.49l0 -127.47c0,-10.73 8.76,-19.47 19.49,-19.47zm11.33 -662.82c0,-27.32 10.89,-51.53 32.93,-71.82 20.32,-20.67 45.2,-30.83 73.94,-30.83l894.73 0c28.75,0 52.88,10.17 71.81,30.83 20.66,20.3 30.86,44.5 30.86,71.82l0 463.84c0,28.74 -10.2,53.24 -30.86,73.93 -18.93,20.65 -43.07,30.82 -71.81,30.82l-894.73 0c-28.74,0 -53.61,-10.18 -73.94,-30.82 -22.04,-20.68 -32.93,-45.19 -32.93,-73.93l0 -463.84zm116.06 1192.54l163.12 0c34.72,0 64.19,21.74 74.46,54.95l66.09 213.76c1.26,4.06 0.56,8.12 -1.95,11.56 -2.52,3.41 -6.21,5.28 -10.45,5.28l-163.09 0c-34.75,0 -64.21,-21.77 -74.48,-54.92l-66.13 -213.78c-1.23,-4.08 -0.57,-8.12 1.96,-11.56 2.54,-3.44 6.21,-5.28 10.47,-5.28zm719.51 -792.48c10.82,0 20.3,-3.85 28.69,-12.24 8.08,-8.08 12.29,-17.18 12.29,-26.6l0 -57.47 -644.64 0 0 57.47c0,9.42 4.23,18.52 12.25,26.6 8.44,8.39 17.91,12.24 28.75,12.24l562.65 0zm40.98 -295.33c0,-11.19 -4.21,-20.66 -12.29,-28.72 -8.39,-8.4 -17.86,-12.63 -28.69,-12.63l-562.65 0c-10.84,0 -20.31,4.23 -28.75,12.63 -8.02,8.06 -12.25,17.53 -12.25,28.72l0 43.11 644.64 0 0 -43.11z"/>
  </g>
 </g>
</svg>
